{"title":"Mortal Kombat Conquest Season 1 DVDRip XviD - DiGrX","uid":8867940,"size":7888002030,"categoryP":"video","categoryS":"tv_shows","magnet":"?xt=urn:btih:2056b91ff3496980bb6e6e648fff89e69e00dc36&amp;dn=Mortal+Kombat+Conquest+Season+1+DVDRip+XviD+-+DiGrX&amp;tr=udp%3A%2F%2Ftracker.openbittorrent.com%3A80&amp;tr=udp%3A%2F%2Fopen.demonii.com%3A1337&amp;tr=udp%3A%2F%2Ftracker.coppersurfer.tk%3A6969&amp;tr=udp%3A%2F%2Fexodus.desync.com%3A6969","seeders":13,"leechers":8,"uploader":"dimigeor","files":22,"time":1377975448,"description":"Mortal Kombat Conquest Season 1 DVDRip XviD - DiGrX\n\n\nCodec ID, Format: XVID, MPEG-4\nAspect ratio, Dimension: 4:3, 624x480\nAudio: MP3, 2 Channels\n\n\n-----------------------------------------------------------------------------------\n\n\nEpisode 1 example:\n\nGeneral\nComplete name                            : 1x01-1x02 Mortal Kombat Conquest - Warrior Eternal DVDRip.avi\nFormat                                   : AVI\nFormat/Info                              : Audio Video Interleave\nFile size                                : 648 MiB\nDuration                                 : 1h 18mn\nOverall bit rate mode                    : Variable\nOverall bit rate                         : 1 160 Kbps\nWriting application                      : MEncoder r33883\nWriting library                          : MPlayer\n\nVideo\nID                                       : 0\nFormat                                   : MPEG-4 Visual\nFormat profile                           : Simple@L3\nFormat settings, BVOP                    : No\nFormat settings, QPel                    : No\nFormat settings, GMC                     : No warppoints\nFormat settings, Matrix                  : Default (H.263)\nCodec ID                                 : XVID\nCodec ID/Hint                            : XviD\nDuration                                 : 1h 18mn\nBit rate                                 : 1 024 Kbps\nWidth                                    : 624 pixels\nHeight                                   : 480 pixels\nDisplay aspect ratio                     : 1.300\nFrame rate                               : 25.000 fps\nColor space                              : YUV\nChroma subsampling                       : 4:2:0\nBit depth                                : 8 bits\nScan type                                : Progressive\nCompression mode                         : Lossy\nBits/(Pixel*Frame)                       : 0.137\nStream size                              : 572 MiB (88%)\nWriting library                          : XviD 63\n\nAudio\nID                                       : 1\nFormat                                   : MPEG Audio\nFormat version                           : Version 1\nFormat profile                           : Layer 3\nMode                                     : Joint stereo\nMode extension                           : MS Stereo\nCodec ID                                 : 55\nCodec ID/Hint                            : MP3\nDuration                                 : 1h 18mn\nBit rate mode                            : Variable\nBit rate                                 : 123 Kbps\nChannel(s)                               : 2 channels\nSampling rate                            : 48.0 KHz\nCompression mode                         : Lossy\nStream size                              : 69.0 MiB (11%)\nAlignment                                : Aligned on interleaves\nInterleave, duration                     : 24 ms (0.60 video frame)\nInterleave, preload duration             : 130 ms\nWriting library                          : LAME3.98.4\n\n\nAudio\nID                                       : 1\nFormat                                   : MPEG Audio\nFormat version                           : Version 1\nFormat profile                           : Layer 3\nMode                                     : Joint stereo\nMode extension                           : MS Stereo\nCodec ID                                 : 55\nCodec ID/Hint                            : MP3\nDuration                                 : 20mn 17s\nBit rate mode                            : Variable\nBit rate                                 : 192 Kbps\nChannel(s)                               : 2 channels\nSampling rate                            : 48.0 KHz\nCompression mode                         : Lossy\nStream size                              : 27.5 MiB (16%)\nAlignment                                : Aligned on interleaves\nInterleave, duration                     : 24 ms (0.60 video frame)\nInterleave, preload duration             : 85 ms\nWriting library                          : LAME3.98.4\n\n\n-----------------------------------------------------------------------------------\n\n","torrent":{"xt":"urn:btih:2056b91ff3496980bb6e6e648fff89e69e00dc36","amp;dn":"Mortal+Kombat+Conquest+Season+1+DVDRip+XviD+-+DiGrX","amp;tr":["udp%3A%2F%2Ftracker.openbittorrent.com%3A80","udp%3A%2F%2Fopen.demonii.com%3A1337","udp%3A%2F%2Ftracker.coppersurfer.tk%3A6969","udp%3A%2F%2Fexodus.desync.com%3A6969"],"infoHash":"2056b91ff3496980bb6e6e648fff89e69e00dc36","infoHashBuffer":{"type":"Buffer","data":[32,86,185,31,243,73,105,128,187,110,110,100,143,255,137,230,158,0,220,54]},"announce":[],"urlList":[]}}